<svg width="164" height="38" fill="none" xmlns="http://www.w3.org/2000/svg"><g clip-path="url(#a)"><path fill-rule="evenodd" clip-rule="evenodd" d="M10.987 33.48a.604.604 0 0 1-.301-.086.725.725 0 0 1-.239-.233 2.472 2.472 0 0 1-.355-.954 15.05 15.05 0 0 1-.197-1.334 18.94 18.94 0 0 1-.083-1.74c-.017-1.277-.013-2.555.01-3.831.015-.785.021-1.396.021-1.837v-14.6c0-.72.004-1.266.011-1.641.007-.376.032-.8.072-1.274.024-.352.076-.7.157-1.04a3.92 3.92 0 0 1 .311-.748 1.46 1.46 0 0 1 .5-.587c.242-.143.492-.269.748-.38.329-.144.67-.247 1.018-.306.452-.078.907-.143 1.362-.197V1.344l-.355-.417H1.113l-.332.417v1.151c2.106.147 3.284.85 3.533 2.107.145 1.06.215 2.134.209 3.208v22.362a26.365 26.365 0 0 1-.126 3.478 1.68 1.68 0 0 1-.249.49c-.16.225-.33.442-.509.648-.14.16-.276.329-.405.503v.857c10.713 0 17.344.082 19.893.246l.895-3.552-.561-.466c-4.14.613-8.303.98-12.473 1.103ZM30.9 23.242a.494.494 0 0 1-.124.024c-.207 0-.311-.089-.311-.269 0-.811.052-1.622.156-2.425a14.31 14.31 0 0 1 .582-2.56c.26-.836.617-1.628 1.062-2.35a5.273 5.273 0 0 1 1.784-1.737 4.385 4.385 0 0 1 2.259-.603c.565-.037 1.128.1 1.635.396.506.297.938.743 1.254 1.295.655 1.141.996 2.492.977 3.87a1.394 1.394 0 0 1-.195.703c-.125.206-.3.362-.502.447-1.138.54-2.3 1.006-3.481 1.397a209.369 209.369 0 0 0-4.968 1.789.501.501 0 0 0-.127.023Zm12.348 7.642c-2.496 1.78-4.65 2.67-6.464 2.67-1.228.03-2.435-.39-3.451-1.201-.945-.746-1.697-1.784-2.172-3a10.665 10.665 0 0 1-.697-3.882c9.064-3.314 13.637-4.972 13.72-4.972.36-.087.681-.322.906-.664.225-.341.339-.766.32-1.197a7.997 7.997 0 0 0-.696-3.454c-.44-.95-1.09-1.74-1.882-2.29a8.373 8.373 0 0 0-2.567-1.2c-.979-.26-1.98-.388-2.984-.38-1.801-.033-3.587.389-5.237 1.237-1.455.739-2.74 1.872-3.752 3.307a15.985 15.985 0 0 0-2.172 4.654 19.314 19.314 0 0 0-.749 5.4c0 3.773.867 6.597 2.599 8.475 1.566 1.715 3.777 2.571 6.63 2.571 1.637-.02 3.248-.48 4.71-1.346a35.776 35.776 0 0 0 5.04-3.578l-.455-.953-.646-.197h-.001ZM71.245 5.058c-.557-1.71-1.65-3.104-3.056-3.895a11.223 11.223 0 0 0-5.508-1.175c-1.377-.01-2.75.188-4.084.588a11.537 11.537 0 0 0-3.514 1.763c-1.064.79-1.935 1.891-2.525 3.198a10.935 10.935 0 0 0-.936 4.64c0 1.157.238 2.295.696 3.319a9.262 9.262 0 0 0 1.747 2.683c.77.8 1.59 1.532 2.452 2.192.864.677 1.76 1.298 2.682 1.86.867.525 1.72 1.08 2.557 1.667a11.715 11.715 0 0 1 1.944 1.629c1.537 1.682 2.307 3.281 2.307 4.8a6.799 6.799 0 0 1-.422 2.344 5.991 5.991 0 0 1-1.179 1.954 5.31 5.31 0 0 1-1.758 1.404 4.581 4.581 0 0 1-2.087.47 4.793 4.793 0 0 1-2.43-.576 5.696 5.696 0 0 1-1.967-1.775c-1.103-1.485-1.705-3.394-1.693-5.365l-.81-.343-4.136 5.461c.945 1.609 2.227 2.904 3.721 3.76 1.52.877 3.192 1.326 4.885 1.312 1.544-.01 3.079-.29 4.552-.834a15.755 15.755 0 0 0 4.2-2.266c1.24-.931 2.293-2.167 3.086-3.624.777-1.385 1.193-3.007 1.195-4.667a8.38 8.38 0 0 0-.394-2.608 8.856 8.856 0 0 0-1.019-2.156 9.913 9.913 0 0 0-1.736-1.922 22.32 22.32 0 0 0-2.214-1.728 73.318 73.318 0 0 0-2.785-1.776c-.654-.373-1.3-.77-1.933-1.188-.6-.412-1.183-.856-1.749-1.33a9.392 9.392 0 0 1-1.579-1.63 7.884 7.884 0 0 1-.998-1.912 6.708 6.708 0 0 1-.415-2.363 5.754 5.754 0 0 1 .297-1.945c.208-.619.52-1.182.917-1.656.42-.493.922-.878 1.475-1.13a3.713 3.713 0 0 1 1.736-.339 4.331 4.331 0 0 1 2.144.451c.678.335 1.284.841 1.775 1.483.985 1.31 1.605 2.943 1.777 4.679l.728.269 4.054-3.723ZM91.46 14.45c-.371-.764-.91-1.399-1.559-1.837a6.886 6.886 0 0 0-2.058-.943 9.043 9.043 0 0 0-2.359-.293 10.683 10.683 0 0 0-4.438.894c-1.219.52-2.336 1.324-3.284 2.364A12.926 12.926 0 0 0 75.6 18.1a18.44 18.44 0 0 0-1.237 4.103 25.036 25.036 0 0 0-.374 4.384 15 15 0 0 0 .446 3.696 11.921 11.921 0 0 0 1.34 3.246c.629 1.019 1.47 1.83 2.444 2.351 1.118.6 2.337.898 3.565.87 3.894 0 7.553-2.017 10.975-6.05l-.415-.71-.52-.147c-2.535 2.302-4.878 3.453-7.026 3.453a4.37 4.37 0 0 1-2.317-.624 4.941 4.941 0 0 1-1.655-1.616 10.46 10.46 0 0 1-1.05-2.278c-.273-.81-.472-1.65-.592-2.51-.11-.81-.166-1.63-.167-2.45.005-1.042.081-2.082.229-3.11.163-1.144.407-2.27.728-3.368a7.336 7.336 0 0 1 1.476-2.842 3.21 3.21 0 0 1 1.047-.828 2.777 2.777 0 0 1 1.24-.286 2.69 2.69 0 0 1 1.632.434c.5.32.913.798 1.194 1.38a9.828 9.828 0 0 1 .914 4.457l.728.343 3.929-2.742a7.051 7.051 0 0 0-.674-2.805Zm7.619 7.287c.106-.962.29-1.91.55-2.829.24-.894.579-1.746 1.009-2.535a5.24 5.24 0 0 1 1.611-1.775 3.934 3.934 0 0 1 2.297-.698 4.077 4.077 0 0 1 2.484.77c.695.51 1.254 1.24 1.61 2.107.377.897.649 1.848.81 2.83.171 1.056.256 2.13.25 3.208 0 .98-.007 1.796-.021 2.448-.022.787-.071 1.571-.145 2.353-.062.769-.176 1.53-.343 2.277a12.876 12.876 0 0 1-.634 1.911 4.814 4.814 0 0 1-1.009 1.591c-.44.423-.94.755-1.476.98a4.95 4.95 0 0 1-2.026.392c-.76.011-1.504-.254-2.131-.76a5.37 5.37 0 0 1-1.486-1.873 12.785 12.785 0 0 1-.894-2.559c-.22-.878-.38-1.775-.478-2.683a23.864 23.864 0 0 1-.125-2.364c0-.933.049-1.865.147-2.791ZM96.5 34.4c1.51 1.616 3.908 2.425 7.193 2.425a12.82 12.82 0 0 0 3.606-.49 9.89 9.89 0 0 0 3.137-1.58c.971-.72 1.82-1.647 2.505-2.731a13.84 13.84 0 0 0 1.642-4.066c.419-1.77.622-3.6.603-5.437.04-1.479-.193-2.95-.685-4.312-.492-1.362-1.23-2.582-2.163-3.575-1.733-1.828-4.248-2.743-7.545-2.743-3.299 0-6.015 1.2-8.15 3.6-1.047 1.165-1.874 2.576-2.426 4.142a13.913 13.913 0 0 0-.774 4.945c0 4.377 1.018 7.65 3.055 9.822h.002Zm32.531-19.398c1.108 0 1.898.26 2.37.784.439.63.716 1.396.799 2.205.175.955.283 1.927.323 2.902.027.858.042 1.964.042 3.32-.002 1.759-.012 3.518-.031 5.278a60.97 60.97 0 0 0 .009 1.874c.004.535.032 1.071.084 1.603.042.352.097.736.166 1.151.048.349.147.683.291.992.125.246.278.469.456.663.624.665 1.444 1.016 2.286.978 1.04 0 2.231-.62 3.575-1.86a42.383 42.383 0 0 0 3.201-3.504l-.477-.834h-.499c-.813.766-1.808 1.22-2.848 1.298-.22.015-.44-.023-.648-.111a1.613 1.613 0 0 1-.558-.403 1.828 1.828 0 0 1-.364-.476 4 4 0 0 1-.218-1.005 16.833 16.833 0 0 1-.104-2.119c0-.538.025-1.409.073-2.608.038-.853.063-1.706.073-2.56v-1.47c.013-1.584.01-2.681-.01-3.295a27.408 27.408 0 0 0-.24-2.498 5.102 5.102 0 0 0-.644-2.18 4.467 4.467 0 0 0-1.289-1.126 3.96 3.96 0 0 0-2.12-.527c-2.439 0-5.267 1.176-8.481 3.528l-.499-.221a5.21 5.21 0 0 0-.717-2.51c-.409-.63-1.112-.943-2.11-.943a4.922 4.922 0 0 0-1.757.355 8.014 8.014 0 0 0-1.871 1.053c-.631.466-1.178.899-1.643 1.298-.464.4-1.001.885-1.611 1.457l.769 1.2c.142-.107.284-.213.427-.318.242-.18.453-.326.634-.44.179-.115.395-.25.644-.405.223-.143.456-.262.697-.358.184-.074.376-.116.571-.122.24-.007.478.065.686.208.211.165.37.405.455.686.104.297.194.598.27.906.085.414.134.837.146 1.262.028.556.045 1.005.05 1.347.007.342.01.856.011 1.543v.417c0 1.6-.104 6.498-.312 14.695l.52.343 4.677-1.592c-.139-.702-.243-2.914-.312-6.636a560.33 560.33 0 0 1-.101-10.925c2.411-1.535 4.129-2.302 5.155-2.302l.004.002Zm20.163 8.35a.48.48 0 0 1-.125.026c-.207 0-.311-.09-.312-.269.001-.812.053-1.622.157-2.425.117-.875.312-1.733.581-2.56.261-.837.618-1.628 1.061-2.351a5.26 5.26 0 0 1 1.784-1.737 4.38 4.38 0 0 1 2.259-.603c.565-.037 1.128.1 1.635.396.506.297.938.743 1.254 1.295.655 1.142.996 2.492.977 3.87a1.4 1.4 0 0 1-.196.702 1.097 1.097 0 0 1-.5.448 30.806 30.806 0 0 1-3.482 1.397c-1.661.575-3.317 1.171-4.968 1.79a.526.526 0 0 0-.124.022h-.001Zm12.347 7.643c-2.495 1.78-4.65 2.67-6.464 2.67-1.229.03-2.435-.389-3.451-1.2-.945-.746-1.697-1.784-2.172-3a10.672 10.672 0 0 1-.697-3.884c9.064-3.313 13.637-4.97 13.72-4.97a1.53 1.53 0 0 0 .907-.664c.224-.342.338-.767.319-1.198a7.994 7.994 0 0 0-.696-3.454c-.439-.949-1.089-1.74-1.881-2.29a8.393 8.393 0 0 0-2.567-1.2c-.98-.26-1.981-.388-2.986-.38-1.8-.033-3.585.39-5.235 1.237-1.455.739-2.741 1.872-3.751 3.307a15.97 15.97 0 0 0-2.173 4.654 19.316 19.316 0 0 0-.748 5.4c0 3.773.866 6.597 2.598 8.475 1.566 1.715 3.776 2.571 6.631 2.571 1.637-.02 3.247-.48 4.709-1.346a35.88 35.88 0 0 0 5.04-3.577l-.455-.954-.648-.197Z" fill="#9C9C9C"/></g><defs><clipPath id="a"><path fill="#fff" d="M0 0h164v38H0z"/></clipPath></defs></svg>