<svg width="164" height="38" fill="none" xmlns="http://www.w3.org/2000/svg"><g clip-path="url(#a)" fill="#9C9C9C"><path d="M44.592 34.133c-2.722 0-4.809-.44-6.261-1.321-1.427-.906-2.14-2.228-2.14-3.966 0-.881.312-1.604.934-2.167.648-.587 1.478-.88 2.49-.88.595.024 1.049.17 1.36.44.312.245.468.477.468.698 0 .024-.13.11-.39.256-.259.148-.492.368-.7.661-.208.295-.312.698-.312 1.212 0 1.151.364 2.044 1.09 2.681.752.612 1.906.918 3.461.918 1.064 0 1.997-.196 2.801-.587.804-.392 1.413-.906 1.828-1.543.44-.66.661-1.346.661-2.057 0-.88-.272-1.64-.817-2.276a6.314 6.314 0 0 0-1.944-1.579c-.779-.44-1.842-.943-3.19-1.506-1.555-.66-2.812-1.26-3.772-1.799a7.965 7.965 0 0 1-2.451-2.13c-.674-.905-1.01-2.019-1.01-3.341 0-2.13.764-3.721 2.294-4.773 1.556-1.053 3.591-1.58 6.106-1.58 1.97 0 3.682.392 5.134 1.176 1.479.783 2.218 1.934 2.218 3.45 0 .882-.325 1.617-.973 2.205-.622.563-1.44.844-2.45.844-.597-.025-1.05-.16-1.361-.404-.312-.269-.468-.514-.468-.734 0-.025.17-.11.506-.258a2.45 2.45 0 0 0 .933-.66c.286-.294.428-.698.428-1.212 0-.906-.375-1.616-1.127-2.13-.727-.514-1.66-.771-2.801-.771-1.581 0-2.787.355-3.616 1.065-.805.685-1.207 1.542-1.207 2.57 0 .857.246 1.58.74 2.167.491.563 1.282 1.126 2.371 1.689.945.47 1.905.91 2.879 1.322 1.66.71 2.969 1.359 3.928 1.946a7.687 7.687 0 0 1 2.45 2.314c.674.954 1.012 2.142 1.012 3.56 0 1.225-.415 2.339-1.245 3.343-.803.979-1.906 1.75-3.306 2.313-1.374.563-2.891.845-4.55.845Zm19.691-.293c-1.763 0-3.164-.502-4.2-1.506-1.038-1.003-1.556-2.326-1.556-3.966v-6.793c0-.636-.027-1.101-.078-1.395-.026-.293-.182-.551-.468-.771-.284-.22-.764-.33-1.438-.33-.312 0-.544-.037-.7-.11-.156-.098-.233-.307-.233-.625 0-.147.051-.282.156-.403.103-.148.259-.233.466-.258 1.634-.22 3.034-.539 4.2-.955a4.43 4.43 0 0 1 .895-.22h.116c.415 0 .623.232.623.698v11.126c0 1.126.376 1.995 1.128 2.607.729.58 1.654.892 2.606.881 1.219 0 2.255-.282 3.111-.845.856-.563 1.427-1.126 1.711-1.689v-7.71c0-.637-.025-1.102-.077-1.396-.026-.293-.182-.551-.467-.771-.285-.22-.765-.33-1.44-.33-.31 0-.544-.037-.699-.11-.155-.098-.233-.307-.233-.625 0-.147.051-.282.155-.403.104-.148.26-.233.467-.258 1.633-.22 3.034-.539 4.2-.955.363-.122.662-.196.895-.22h.117c.415 0 .622.232.622.698v12.706c0 1.444 1.024 2.166 3.073 2.166.44 0 .66.233.66.698 0 .342-.22.55-.66.624l-6.263.404c-.18 0-.285-.062-.311-.183a2.648 2.648 0 0 1-.039-.55v-2.058h-.077a46.318 46.318 0 0 1-1.828 1.541c-.467.343-1.076.637-1.829.882-.726.27-1.594.404-2.605.404Zm15.74-.33c-.09 0-.18-.02-.26-.059a.583.583 0 0 1-.207-.162.87.87 0 0 1-.156-.514c.027-.317.105-.502.234-.55.13-.074.363-.111.7-.111.674 0 1.154-.11 1.44-.33.285-.22.44-.478.466-.771.053-.295.078-.76.078-1.396v-8.409c0-.636-.025-1.101-.078-1.396-.025-.293-.181-.55-.466-.77-.286-.22-.766-.331-1.44-.331-.311 0-.544-.037-.699-.11-.156-.098-.234-.306-.234-.625 0-.146.052-.281.156-.403.103-.147.26-.233.467-.257 1.685-.245 3.072-.563 4.161-.955.441-.123.739-.196.895-.22h.116c.415 0 .623.232.623.698v2.276h.116c.908-.857 1.829-1.53 2.762-2.02.934-.514 1.776-.77 2.528-.77.856 0 1.53.305 2.023.917.518.588.777 1.273.777 2.057 0 .685-.22 1.297-.66 1.835-.442.54-1.051.808-1.828.808a2.094 2.094 0 0 1-.973-.22c-.26-.147-.402-.269-.428-.367.026-.049.156-.196.389-.441.233-.27.35-.575.35-.917 0-.442-.13-.796-.389-1.065-.234-.27-.558-.404-.973-.404-.44 0-.997.208-1.671.624-.675.392-1.336.893-1.984 1.505v8.96c0 .636.025 1.101.077 1.396.052.293.22.55.506.77.285.22.765.331 1.44.331h.233c.207 0 .362.037.466.11.104.074.169.258.195.55a.864.864 0 0 1-.156.515c-.103.147-.26.22-.467.22a84.382 84.382 0 0 0-4.083-.11c-1.167 0-2.515.037-4.045.11Zm60.408.33c-1.763 0-3.332-.392-4.706-1.175-1.375-.808-2.451-1.86-3.229-3.158a8.343 8.343 0 0 1-1.127-4.187c0-1.835.453-3.427 1.361-4.773.908-1.37 2.061-2.412 3.461-3.121 1.401-.735 2.814-1.101 4.24-1.101 1.763 0 3.332.403 4.706 1.21a8.335 8.335 0 0 1 3.189 3.159 7.93 7.93 0 0 1 1.167 4.149c0 1.836-.466 3.44-1.399 4.811a9.38 9.38 0 0 1-3.463 3.12c-1.399.711-2.8 1.066-4.2 1.066Zm0-1.358c1.763 0 3.047-.71 3.85-2.13.83-1.42 1.245-3.256 1.245-5.508 0-2.106-.428-3.82-1.283-5.142-.83-1.346-2.101-2.019-3.812-2.019-1.789 0-3.085.698-3.89 2.093-.803 1.396-1.205 3.219-1.205 5.472 0 2.104.415 3.843 1.245 5.213.83 1.347 2.113 2.02 3.85 2.02Zm18.863 1.541c-1.271 0-2.36-.44-3.268-1.321-.907-.882-1.361-2.142-1.361-3.782V18.124l-2.256.073a.504.504 0 0 1-.218-.047.466.466 0 0 1-.17-.136.805.805 0 0 1-.156-.478c0-.22.039-.403.116-.55a.577.577 0 0 1 .428-.295c.908-.17 1.608-.44 2.101-.807.518-.392.895-.808 1.128-1.248.233-.466.519-1.164.856-2.094.129-.318.415-.477.855-.477.181 0 .363.049.544.147.182.073.273.196.273.367l-.273 4.186 4.551-.257h.078c.337 0 .505.232.505.698 0 .269-.051.526-.155.77-.078.221-.182.332-.311.332l-4.356-.11V29.36c0 .808.168 1.481.505 2.02.363.539.946.808 1.751.808.803 0 1.517-.135 2.138-.404.338-.123.545-.184.623-.184.182 0 .324.073.428.22.104.123.207.295.311.514.028.058.041.12.039.184 0 .098-.078.208-.234.33-.752.466-1.464.772-2.138.919-.649.17-1.427.256-2.334.256Zm-62.865-.734c.104.147.26.22.467.22a82.052 82.052 0 0 1 4.045-.11c1.738 0 3.358.037 4.862.11a.513.513 0 0 0 .245-.056.481.481 0 0 0 .183-.164.874.874 0 0 0 .155-.514c-.026-.293-.09-.477-.194-.55-.078-.074-.233-.111-.467-.111h-.234c-.855 0-1.464-.061-1.828-.184-.363-.122-.609-.343-.738-.66-.13-.343-.195-.894-.195-1.652V18.196h4.123c.091 0 .18-.02.261-.059a.585.585 0 0 0 .206-.161.754.754 0 0 0 .194-.514c-.026-.294-.104-.477-.234-.551-.103-.098-.272-.148-.505-.148h-4.045v-2.202c0-1.175.052-2.203.155-3.085a5.736 5.736 0 0 1 .895-2.497c.493-.758 1.258-1.138 2.295-1.138.119 0 .235.006.346.02a5.958 5.958 0 0 1 .085-1.23 6.967 6.967 0 0 0-.159-.002c-2.282.049-4.058.869-5.328 2.46-1.245 1.567-1.867 3.612-1.867 6.133v1.542h-2.334c-.337 0-.57.037-.7.11-.13.05-.208.245-.233.588a.87.87 0 0 0 .155.514c.13.147.298.22.506.22h2.606v11.42c0 .662-.026 1.14-.078 1.433-.025.27-.181.514-.467.735-.285.22-.765.33-1.439.33-.337 0-.57.037-.7.11-.103.049-.168.233-.194.55 0 .197.051.368.155.515Z"/><path fill-rule="evenodd" clip-rule="evenodd" d="M117.221 7.65a3.891 3.891 0 0 1-.331 1.563 4.058 4.058 0 0 1-.937 1.323c-.401.38-.877.68-1.401.884a4.537 4.537 0 0 1-1.653.31 4.445 4.445 0 0 1-3.053-1.194 3.972 3.972 0 0 1-1.268-2.886c0-.536.112-1.067.33-1.562.217-.496.536-.946.937-1.325.401-.378.877-.679 1.402-.884a4.53 4.53 0 0 1 1.652-.31c.567 0 1.129.105 1.653.31a4.342 4.342 0 0 1 1.402.884c.401.38.72.83.937 1.325a3.91 3.91 0 0 1 .33 1.562Zm-4.322 2.04c.284 0 .565-.052.827-.155.262-.102.5-.252.7-.442.201-.189.36-.414.469-.662a1.937 1.937 0 0 0 0-1.562 2.036 2.036 0 0 0-.468-.662 2.175 2.175 0 0 0-.701-.442 2.267 2.267 0 0 0-2.353.442 1.982 1.982 0 0 0-.634 1.443c0 .541.228 1.06.633 1.443.405.382.955.597 1.527.597Zm-1.894 3.815v19.674c0 .22.066.391.195.514.13.147.311.22.545.22a.718.718 0 0 0 .583-.293c.156-.172.298-.429.428-.772.129-.343.246-.612.35-.808h.194c1.685 1.2 3.682 1.8 5.99 1.8 1.556 0 3.02-.392 4.395-1.176a8.834 8.834 0 0 0 3.267-3.195c.829-1.37 1.244-2.875 1.244-4.516 0-1.665-.362-3.145-1.089-4.443-.699-1.322-1.672-2.35-2.916-3.084-1.245-.735-2.633-1.102-4.162-1.102-.934 0-1.88.183-2.84.551a7.341 7.341 0 0 0-2.528 1.579h-.116V13.57a6.906 6.906 0 0 1-3.54-.066Zm11.747 17.066c-.96 1.347-2.231 2.02-3.812 2.02-.83 0-1.568-.17-2.217-.514-.622-.342-1.128-.746-1.517-1.212-.363-.49-.583-.93-.661-1.321V19.85c1.114-1.127 2.489-1.69 4.123-1.69 1.841 0 3.227.686 4.161 2.057.934 1.346 1.4 2.974 1.4 4.883 0 2.277-.492 4.101-1.477 5.471ZM10.414.285c.275-.186.604-.285.942-.285.338 0 .667.1.942.285C19.318 5.018 22.5 10.693 22.7 18.835c.093 3.887-.303 7.447-1.51 10.522-1.238 3.077-3.438 5.92-6.677 8.32-.201.148-.437.25-.688.295-.25.046-.51.035-.755-.031-.992-.27-1.161-1.38-1.714-2.071-.553.691-.72 1.801-1.714 2.07a1.715 1.715 0 0 1-.754.032 1.67 1.67 0 0 1-.688-.296c-3.239-2.4-5.44-5.242-6.677-8.32C.317 26.283-.08 22.723.013 18.836c.2-8.142 3.382-13.818 10.401-18.55Zm3.63 33.885c2.026-1.76 3.248-3.68 4.11-5.887 1.087-2.699 1.4-5.682 1.306-9.377-.155-6.349-1.73-10.48-6.497-14.316v11.22c1.864.453 2.7 2.18 2.7 4.08 0 1.901-.836 3.627-2.7 4.08v9.18s.866.754 1.08 1.02Zm-5.403 0c-2.027-1.76-3.22-3.68-4.083-5.887-1.086-2.699-1.4-5.682-1.304-9.377C3.41 12.57 4.975 8.421 9.722 4.59v11.22c-1.864.453-2.701 2.18-2.701 4.08 0 1.901.836 3.627 2.7 4.08v9.18s-.873.764-1.08 1.02Zm2.701-16.32c-.572 0-1.121.214-1.527.596a1.988 1.988 0 0 0-.633 1.443c0 1.128.967 2.04 2.16 2.04.573.001 1.122-.213 1.527-.596.405-.382.633-.901.634-1.443 0-1.127-.968-2.04-2.16-2.04Z"/></g><defs><clipPath id="a"><path fill="#fff" d="M0 0h164v38H0z"/></clipPath></defs></svg>