<svg width="164" height="38" fill="none" xmlns="http://www.w3.org/2000/svg"><path d="M18.11 36.832c-.982.035-1.954-.26-2.828-.86-.869-.594-1.61-1.475-2.154-2.559-1.71 2.1-3.928 3.312-6.25 3.419-4.173 0-6.435-3.872-5.67-9.422.58-4.173 3.178-8.355 3.904-11.713-1.405-1.126-3.492-1.91-4.47.391L0 15.575c.512-2.523 1.75-4.202 3.538-4.202 1.788 0 3.11 1.397 4.814.11h1.36c-.725 5.028-2.56 9.05-3.538 16.088-.595 4.314.512 6.275 2.385 6.275 1.383-.228 2.656-1.126 3.575-2.525a26.15 26.15 0 0 1-1.107-7.732c0-6.114 2.132-12.558 5.708-12.558 1.834 0 3.194 1.679 3.194 5.661 0 3.981-1.834 10.145-4.172 14.015.126.922.493 1.757 1.037 2.362.544.603 1.23.939 1.943.948 3.408 0 5.792-6.729 5.792-12.952s-2.048-5.942-1.872-8.043c.016-.263.07-.519.16-.753a2.02 2.02 0 0 1 .365-.613c.304-.347.7-.52 1.103-.484 1.062 0 2.46 1.77 2.46 8.949 0 9.149-3.699 16.711-8.636 16.711h.001Zm-.771-22.644c-1.063 0-2.087 5.158-2.217 10.487a30.04 30.04 0 0 0 .046 3.42c1.603-3.487 2.58-7.42 2.858-11.494-.008-1.81-.26-2.414-.688-2.414v.001Zm16.406 22.413a2.379 2.379 0 0 1-1.32-.203 3.064 3.064 0 0 1-1.13-.918c-.32-.41-.567-.91-.726-1.463a5.198 5.198 0 0 1-.187-1.73c0-2.464 2.43-14.741 2.43-16.762 0-.954-.168-1.518-.81-1.518-.716.154-1.382.584-1.918 1.236v-1.739c1.112-1.348 2.548-2.121 4.05-2.181.448-.053.9.023 1.324.223.424.202.809.52 1.13.937.319.416.566.919.724 1.475.156.554.22 1.148.184 1.738 0 2.463-2.43 14.69-2.43 16.701 0 .956.168 1.519.81 1.519.707-.157 1.37-.563 1.919-1.177v1.679c-1.109 1.357-2.547 2.132-4.05 2.183Zm2.98-35.485c.332-.013.664.067.97.24.307.172.582.429.805.754.223.323.39.708.489 1.127.099.42.127.863.082 1.298-.083.93-.416 1.788-.938 2.412-.527.63-1.206.988-1.912 1.007a1.82 1.82 0 0 1-.971-.239 2.425 2.425 0 0 1-.805-.754 3.319 3.319 0 0 1-.49-1.127 3.93 3.93 0 0 1-.08-1.299c.082-.93.415-1.787.937-2.412.527-.63 1.206-.986 1.912-1.005v-.002Zm9.46 30.216c-.214 1.518-.084 2.574.726 2.574.709-.146 1.373-.553 1.917-1.177l.077 1.689c-1.113 1.348-2.549 2.122-4.05 2.183-2.644 0-3.668-2.524-3.278-5.661l2.598-19.456c.864-6.496.565-7.351-2.079-7.351l.168-1.568 7.97-1.388-4.05 30.154v.001Zm22.412-.051c-.214 1.519-.13 2.635.726 2.635.71-.177 1.372-.604 1.918-1.237v1.739c-1.105 1.363-2.545 2.14-4.05 2.183-.76.073-1.515-.232-2.117-.856-.598-.62-1-1.517-1.123-2.513-.642 1.116-1.465 2.022-2.407 2.65-.948.632-1.99.97-3.049.99-5.066 0-7.198-5.882-6.22-12.951.978-7.068 5.54-12.84 10.698-12.84 1.22-.034 2.425.343 3.507 1.096l.13-.894c1.009-6.919.543-7.15-2.101-7.15l.13-1.568 8.007-1.388-4.05 30.105.001-.001Zm-5.495-17.666c-2.942 0-4.897 4.595-5.67 10.256-.81 5.942-.297 10.055 2.469 10.055 1.872 0 4.004-3.018 4.646-7.622L66.12 14.64c-.91-.726-1.96-1.082-3.019-1.026Zm18.96 23.266c-5.923 0-7.543-5.61-6.817-10.99l1.933-14.407c.894-6.505.597-7.401-2.048-7.401l.168-1.568 7.993-1.338-1.62 12.217c1.25-1.426 2.828-2.239 4.47-2.303 5.158 0 7.58 5.772 6.649 12.84-.932 7.07-5.678 12.951-10.729 12.951Zm2.765-23.125c-.859.022-1.691.403-2.38 1.088-.684.68-1.188 1.634-1.44 2.722l-1.193 9.05c-.726 5.379.727 7.57 2.56 7.57 2.683 0 4.349-3.92 5.242-10.366.795-5.771.07-10.034-2.796-10.034l.007-.03Zm16.04 13.433c0 4.314 1.574 6.616 4.584 6.616 1.529 0 3.752-1.397 5.159-3.247l.595 1.789c-1.013 1.411-2.227 2.54-3.57 3.317-1.349.781-2.8 1.198-4.27 1.227-4.47 0-7.496-4.373-7.496-10.316 0-8.798 5.54-15.473 10.867-15.473 3.239 0 5.065 2.352 5.065 5.097-.038 4.263-3.109 9.05-10.934 10.99Zm5.494-13.514c-2.43 0-4.768 4.655-5.411 11.322 4.899-1.569 6.985-5.942 7.031-8.748-.008-1.568-.566-2.574-1.628-2.574h.008Zm22.825 22.926c-.761.073-1.515-.232-2.118-.856-.597-.62-.998-1.517-1.122-2.513-.618 1.115-1.422 2.023-2.348 2.652-.93.633-1.957.97-3.001.987-4.982 0-7.114-5.881-6.113-12.95 1-7.068 5.486-12.83 10.66-12.83 1.096-.008 2.182.28 3.194.845h4.859l-2.605 19.345c-.215 1.519-.13 2.635.726 2.635.71-.178 1.372-.605 1.918-1.237v1.739c-1.105 1.363-2.546 2.14-4.05 2.183Zm-3.92-22.986c-2.858 0-4.86 4.595-5.625 10.256-.81 5.942-.252 10.055 2.293 10.055 1.956 0 4.05-3.137 4.646-7.622l1.574-11.663c-.859-.726-1.864-1.084-2.881-1.026h-.007Zm22.84 4.092c-1.154 0-1.452-1.176-1.788-2.413-.115-.626-.39-1.178-.777-1.56-.391-.386-.869-.581-1.355-.552-.631-.044-1.251.224-1.743.754-.488.524-.809 1.275-.901 2.102-.13 1.519.725 2.805 2.345 4.655l2.171 2.353c.806.802 1.433 1.884 1.811 3.13a9.506 9.506 0 0 1 .321 3.909c-.551 4.202-3.194 6.786-6.732 6.786-4.264 0-6.985-3.308-6.687-5.55.07-.59.296-1.129.639-1.518.343-.391.78-.608 1.234-.614 1.108 0 1.528 1.117 1.872 2.574.22.839.645 1.556 1.207 2.043.564.488 1.232.717 1.903.652.662.042 1.313-.244 1.827-.802.51-.554.845-1.344.939-2.213.168-2.012-.764-3.248-2.514-5.33l-2.132-2.464c-.749-.752-1.335-1.758-1.697-2.913a9.125 9.125 0 0 1-.351-3.642c.382-2.694 2.293-6.033 6.686-6.033 3.408 0 5.54 2.524 5.35 4.545-.022.557-.201 1.083-.502 1.47-.302.388-.704.614-1.126.63Zm15.596-3.519h-4.134l-2.002 14.9c-.428 3.088-.084 4.486 1.192 4.486.68 0 1.749-.503 3.278-2.574l.084 2.182c-.694 1.081-1.555 1.95-2.523 2.548-.972.6-2.029.918-3.101.93-2.896 0-4.348-2.694-3.66-7.682l2.002-14.79h-3.233l.253-2.302h3.263l.856-6.667h4.768l-.894 6.666h4.134l-.283 2.302v.001Z" fill="#9C9C9C"/></svg>