<svg width="32" height="32" fill="none" xmlns="http://www.w3.org/2000/svg"><path d="M31.33 4.998c-.18-.967-.537-1.849-1.033-2.558C29.8 1.73 29.18 1.219 28.5.956 26.007 0 16 0 16 0S5.993 0 3.497.956c-.68.263-1.298.775-1.794 1.484C1.206 3.15.85 4.032.669 4.998 0 8.563 0 16 0 16s0 7.437.67 11.002c.18.967.537 1.849 1.033 2.558.497.71 1.116 1.221 1.796 1.484C5.993 32 16 32 16 32s10.007 0 12.503-.956c.68-.262 1.299-.774 1.795-1.483.497-.71.853-1.592 1.034-2.559C32 23.437 32 16 32 16s0-7.437-.67-11.002ZM12.728 22.752V9.248L21.09 16l-8.364 6.752Z" fill="url(#a)"/><defs><linearGradient id="a" x1="16" y1="0" x2="16" y2="32" gradientUnits="userSpaceOnUse"><stop stop-color="#FFBF00"/><stop offset="1" stop-color="#F2A60C"/></linearGradient></defs></svg>