<svg width="16" height="17" fill="none" xmlns="http://www.w3.org/2000/svg"><path d="M.728 4.227a.73.73 0 0 0 .726-.726v-.728a.731.731 0 0 1 .728-.727h.727a.73.73 0 0 0 .727-.727.73.73 0 0 0-.727-.728h-.727A2.178 2.178 0 0 0 0 2.773v.728c0 .399.327.726.728.726Zm2.181 10.91h-.727a.73.73 0 0 1-.728-.727v-.728c0-.4-.327-.726-.726-.726a.73.73 0 0 0-.728.726v.728c0 1.207.974 2.181 2.182 2.181h.727a.73.73 0 0 0 .727-.727c0-.4-.327-.727-.727-.727ZM13.82.59h-.727a.73.73 0 0 0-.728.728c0 .4.327.727.728.727h.726c.4 0 .728.327.728.727v.728c0 .399.327.726.728.726A.73.73 0 0 0 16 3.501v-.728A2.178 2.178 0 0 0 13.818.591Zm1.454 12.363a.73.73 0 0 0-.727.728v.728a.73.73 0 0 1-.728.727h-.726a.73.73 0 0 0-.728.727c0 .4.327.727.728.727h.726A2.178 2.178 0 0 0 16 14.41v-.728c0-.4-.327-.726-.726-.726v-.002ZM13.09 10.68V6.504c0-.524-.276-1.004-.726-1.258L8.726 3.152a1.437 1.437 0 0 0-1.454 0L3.636 5.237a1.458 1.458 0 0 0-.728 1.266v4.175c0 .523.276 1.003.728 1.257l3.636 2.095a1.437 1.437 0 0 0 1.454 0l3.638-2.093a1.44 1.44 0 0 0 .727-1.258h-.002ZM7.272 12.35l-2.91-1.672V7.31l2.91 1.694v3.346Zm.727-4.603-2.88-1.68L8 4.409l2.88 1.659L8 7.748Zm3.636 2.93-2.909 1.673V9.005l2.91-1.694v3.368Z" fill="#9C9C9C"/></svg>